<svg version="1.1" xmlns="http://www.w3.org/2000/svg" xmlns:xlink="http://www.w3.org/1999/xlink" width="621.57080078125" height="525"><defs/><g><text fill="#eeeeee" stroke="none" font-family="Arial" font-size="24px" font-style="normal" font-weight="normal" text-decoration="none" x="0" y="0">UNREGISTERED</text><text fill="#eeeeee" stroke="none" font-family="Arial" font-size="24px" font-style="normal" font-weight="normal" text-decoration="none" x="0" y="30">UNREGISTERED</text><text fill="#eeeeee" stroke="none" font-family="Arial" font-size="24px" font-style="normal" font-weight="normal" text-decoration="none" x="0" y="60">UNREGISTERED</text><text fill="#eeeeee" stroke="none" font-family="Arial" font-size="24px" font-style="normal" font-weight="normal" text-decoration="none" x="0" y="90">UNREGISTERED</text><text fill="#eeeeee" stroke="none" font-family="Arial" font-size="24px" font-style="normal" font-weight="normal" text-decoration="none" x="0" y="120">UNREGISTERED</text><text fill="#eeeeee" stroke="none" font-family="Arial" font-size="24px" font-style="normal" font-weight="normal" text-decoration="none" x="0" y="150">UNREGISTERED</text><text fill="#eeeeee" stroke="none" font-family="Arial" font-size="24px" font-style="normal" font-weight="normal" text-decoration="none" x="0" y="180">UNREGISTERED</text><text fill="#eeeeee" stroke="none" font-family="Arial" font-size="24px" font-style="normal" font-weight="normal" text-decoration="none" x="0" y="210">UNREGISTERED</text><text fill="#eeeeee" stroke="none" font-family="Arial" font-size="24px" font-style="normal" font-weight="normal" text-decoration="none" x="0" y="240">UNREGISTERED</text><text fill="#eeeeee" stroke="none" font-family="Arial" font-size="24px" font-style="normal" font-weight="normal" text-decoration="none" x="0" y="270">UNREGISTERED</text><text fill="#eeeeee" stroke="none" font-family="Arial" font-size="24px" font-style="normal" font-weight="normal" text-decoration="none" x="0" y="300">UNREGISTERED</text><text fill="#eeeeee" stroke="none" font-family="Arial" font-size="24px" font-style="normal" font-weight="normal" text-decoration="none" x="0" y="330">UNREGISTERED</text><text fill="#eeeeee" stroke="none" font-family="Arial" font-size="24px" font-style="normal" font-weight="normal" text-decoration="none" x="0" y="360">UNREGISTERED</text><text fill="#eeeeee" stroke="none" font-family="Arial" font-size="24px" font-style="normal" font-weight="normal" text-decoration="none" x="0" y="390">UNREGISTERED</text><text fill="#eeeeee" stroke="none" font-family="Arial" font-size="24px" font-style="normal" font-weight="normal" text-decoration="none" x="0" y="420">UNREGISTERED</text><text fill="#eeeeee" stroke="none" font-family="Arial" font-size="24px" font-style="normal" font-weight="normal" text-decoration="none" x="0" y="450">UNREGISTERED</text><text fill="#eeeeee" stroke="none" font-family="Arial" font-size="24px" font-style="normal" font-weight="normal" text-decoration="none" x="0" y="480">UNREGISTERED</text><text fill="#eeeeee" stroke="none" font-family="Arial" font-size="24px" font-style="normal" font-weight="normal" text-decoration="none" x="0" y="510">UNREGISTERED</text><text fill="#eeeeee" stroke="none" font-family="Arial" font-size="24px" font-style="normal" font-weight="normal" text-decoration="none" x="200" y="0">UNREGISTERED</text><text fill="#eeeeee" stroke="none" font-family="Arial" font-size="24px" font-style="normal" font-weight="normal" text-decoration="none" x="200" y="30">UNREGISTERED</text><text fill="#eeeeee" stroke="none" font-family="Arial" font-size="24px" font-style="normal" font-weight="normal" text-decoration="none" x="200" y="60">UNREGISTERED</text><text fill="#eeeeee" stroke="none" font-family="Arial" font-size="24px" font-style="normal" font-weight="normal" text-decoration="none" x="200" y="90">UNREGISTERED</text><text fill="#eeeeee" stroke="none" font-family="Arial" font-size="24px" font-style="normal" font-weight="normal" text-decoration="none" x="200" y="120">UNREGISTERED</text><text fill="#eeeeee" stroke="none" font-family="Arial" font-size="24px" font-style="normal" font-weight="normal" text-decoration="none" x="200" y="150">UNREGISTERED</text><text fill="#eeeeee" stroke="none" font-family="Arial" font-size="24px" font-style="normal" font-weight="normal" text-decoration="none" x="200" y="180">UNREGISTERED</text><text fill="#eeeeee" stroke="none" font-family="Arial" font-size="24px" font-style="normal" font-weight="normal" text-decoration="none" x="200" y="210">UNREGISTERED</text><text fill="#eeeeee" stroke="none" font-family="Arial" font-size="24px" font-style="normal" font-weight="normal" text-decoration="none" x="200" y="240">UNREGISTERED</text><text fill="#eeeeee" stroke="none" font-family="Arial" font-size="24px" font-style="normal" font-weight="normal" text-decoration="none" x="200" y="270">UNREGISTERED</text><text fill="#eeeeee" stroke="none" font-family="Arial" font-size="24px" font-style="normal" font-weight="normal" text-decoration="none" x="200" y="300">UNREGISTERED</text><text fill="#eeeeee" stroke="none" font-family="Arial" font-size="24px" font-style="normal" font-weight="normal" text-decoration="none" x="200" y="330">UNREGISTERED</text><text fill="#eeeeee" stroke="none" font-family="Arial" font-size="24px" font-style="normal" font-weight="normal" text-decoration="none" x="200" y="360">UNREGISTERED</text><text fill="#eeeeee" stroke="none" font-family="Arial" font-size="24px" font-style="normal" font-weight="normal" text-decoration="none" x="200" y="390">UNREGISTERED</text><text fill="#eeeeee" stroke="none" font-family="Arial" font-size="24px" font-style="normal" font-weight="normal" text-decoration="none" x="200" y="420">UNREGISTERED</text><text fill="#eeeeee" stroke="none" font-family="Arial" font-size="24px" font-style="normal" font-weight="normal" text-decoration="none" x="200" y="450">UNREGISTERED</text><text fill="#eeeeee" stroke="none" font-family="Arial" font-size="24px" font-style="normal" font-weight="normal" text-decoration="none" x="200" y="480">UNREGISTERED</text><text fill="#eeeeee" stroke="none" font-family="Arial" font-size="24px" font-style="normal" font-weight="normal" text-decoration="none" x="200" y="510">UNREGISTERED</text><text fill="#eeeeee" stroke="none" font-family="Arial" font-size="24px" font-style="normal" font-weight="normal" text-decoration="none" x="400" y="0">UNREGISTERED</text><text fill="#eeeeee" stroke="none" font-family="Arial" font-size="24px" font-style="normal" font-weight="normal" text-decoration="none" x="400" y="30">UNREGISTERED</text><text fill="#eeeeee" stroke="none" font-family="Arial" font-size="24px" font-style="normal" font-weight="normal" text-decoration="none" x="400" y="60">UNREGISTERED</text><text fill="#eeeeee" stroke="none" font-family="Arial" font-size="24px" font-style="normal" font-weight="normal" text-decoration="none" x="400" y="90">UNREGISTERED</text><text fill="#eeeeee" stroke="none" font-family="Arial" font-size="24px" font-style="normal" font-weight="normal" text-decoration="none" x="400" y="120">UNREGISTERED</text><text fill="#eeeeee" stroke="none" font-family="Arial" font-size="24px" font-style="normal" font-weight="normal" text-decoration="none" x="400" y="150">UNREGISTERED</text><text fill="#eeeeee" stroke="none" font-family="Arial" font-size="24px" font-style="normal" font-weight="normal" text-decoration="none" x="400" y="180">UNREGISTERED</text><text fill="#eeeeee" stroke="none" font-family="Arial" font-size="24px" font-style="normal" font-weight="normal" text-decoration="none" x="400" y="210">UNREGISTERED</text><text fill="#eeeeee" stroke="none" font-family="Arial" font-size="24px" font-style="normal" font-weight="normal" text-decoration="none" x="400" y="240">UNREGISTERED</text><text fill="#eeeeee" stroke="none" font-family="Arial" font-size="24px" font-style="normal" font-weight="normal" text-decoration="none" x="400" y="270">UNREGISTERED</text><text fill="#eeeeee" stroke="none" font-family="Arial" font-size="24px" font-style="normal" font-weight="normal" text-decoration="none" x="400" y="300">UNREGISTERED</text><text fill="#eeeeee" stroke="none" font-family="Arial" font-size="24px" font-style="normal" font-weight="normal" text-decoration="none" x="400" y="330">UNREGISTERED</text><text fill="#eeeeee" stroke="none" font-family="Arial" font-size="24px" font-style="normal" font-weight="normal" text-decoration="none" x="400" y="360">UNREGISTERED</text><text fill="#eeeeee" stroke="none" font-family="Arial" font-size="24px" font-style="normal" font-weight="normal" text-decoration="none" x="400" y="390">UNREGISTERED</text><text fill="#eeeeee" stroke="none" font-family="Arial" font-size="24px" font-style="normal" font-weight="normal" text-decoration="none" x="400" y="420">UNREGISTERED</text><text fill="#eeeeee" stroke="none" font-family="Arial" font-size="24px" font-style="normal" font-weight="normal" text-decoration="none" x="400" y="450">UNREGISTERED</text><text fill="#eeeeee" stroke="none" font-family="Arial" font-size="24px" font-style="normal" font-weight="normal" text-decoration="none" x="400" y="480">UNREGISTERED</text><text fill="#eeeeee" stroke="none" font-family="Arial" font-size="24px" font-style="normal" font-weight="normal" text-decoration="none" x="400" y="510">UNREGISTERED</text><text fill="#eeeeee" stroke="none" font-family="Arial" font-size="24px" font-style="normal" font-weight="normal" text-decoration="none" x="600" y="0">UNREGISTERED</text><text fill="#eeeeee" stroke="none" font-family="Arial" font-size="24px" font-style="normal" font-weight="normal" text-decoration="none" x="600" y="30">UNREGISTERED</text><text fill="#eeeeee" stroke="none" font-family="Arial" font-size="24px" font-style="normal" font-weight="normal" text-decoration="none" x="600" y="60">UNREGISTERED</text><text fill="#eeeeee" stroke="none" font-family="Arial" font-size="24px" font-style="normal" font-weight="normal" text-decoration="none" x="600" y="90">UNREGISTERED</text><text fill="#eeeeee" stroke="none" font-family="Arial" font-size="24px" font-style="normal" font-weight="normal" text-decoration="none" x="600" y="120">UNREGISTERED</text><text fill="#eeeeee" stroke="none" font-family="Arial" font-size="24px" font-style="normal" font-weight="normal" text-decoration="none" x="600" y="150">UNREGISTERED</text><text fill="#eeeeee" stroke="none" font-family="Arial" font-size="24px" font-style="normal" font-weight="normal" text-decoration="none" x="600" y="180">UNREGISTERED</text><text fill="#eeeeee" stroke="none" font-family="Arial" font-size="24px" font-style="normal" font-weight="normal" text-decoration="none" x="600" y="210">UNREGISTERED</text><text fill="#eeeeee" stroke="none" font-family="Arial" font-size="24px" font-style="normal" font-weight="normal" text-decoration="none" x="600" y="240">UNREGISTERED</text><text fill="#eeeeee" stroke="none" font-family="Arial" font-size="24px" font-style="normal" font-weight="normal" text-decoration="none" x="600" y="270">UNREGISTERED</text><text fill="#eeeeee" stroke="none" font-family="Arial" font-size="24px" font-style="normal" font-weight="normal" text-decoration="none" x="600" y="300">UNREGISTERED</text><text fill="#eeeeee" stroke="none" font-family="Arial" font-size="24px" font-style="normal" font-weight="normal" text-decoration="none" x="600" y="330">UNREGISTERED</text><text fill="#eeeeee" stroke="none" font-family="Arial" font-size="24px" font-style="normal" font-weight="normal" text-decoration="none" x="600" y="360">UNREGISTERED</text><text fill="#eeeeee" stroke="none" font-family="Arial" font-size="24px" font-style="normal" font-weight="normal" text-decoration="none" x="600" y="390">UNREGISTERED</text><text fill="#eeeeee" stroke="none" font-family="Arial" font-size="24px" font-style="normal" font-weight="normal" text-decoration="none" x="600" y="420">UNREGISTERED</text><text fill="#eeeeee" stroke="none" font-family="Arial" font-size="24px" font-style="normal" font-weight="normal" text-decoration="none" x="600" y="450">UNREGISTERED</text><text fill="#eeeeee" stroke="none" font-family="Arial" font-size="24px" font-style="normal" font-weight="normal" text-decoration="none" x="600" y="480">UNREGISTERED</text><text fill="#eeeeee" stroke="none" font-family="Arial" font-size="24px" font-style="normal" font-weight="normal" text-decoration="none" x="600" y="510">UNREGISTERED</text><g transform="translate(-14,-102) scale(1,1)"><rect fill="#C0C0C0" stroke="none" x="31" y="207" width="128" height="205" opacity="0.2"/></g><g transform="translate(-14,-102) scale(1,1)"><rect fill="#ffffff" stroke="none" x="24" y="200" width="128" height="205"/></g><g transform="translate(-14,-102) scale(1,1)"><path fill="none" stroke="#000000" d="M 24 200 L 152 200 L 152 405 L 24 405 L 24 200 Z Z" stroke-miterlimit="10"/></g><g transform="translate(-14,-102) scale(1,1)"><path fill="none" stroke="#000000" d="M 24 225 L 152 225" stroke-miterlimit="10"/></g><g transform="translate(-14,-102) scale(1,1)"><path fill="none" stroke="#000000" d="M 24 308 L 152 308" stroke-miterlimit="10"/></g><g transform="translate(-14,-102) scale(1,1)"><g><path fill="none" stroke="none"/><text fill="#000000" stroke="none" font-family="Arial" font-size="13px" font-style="normal" font-weight="bold" text-decoration="none" x="66.319580078125" y="219.5">product</text></g></g><g transform="translate(-14,-102) scale(1,1)"><g><path fill="none" stroke="none"/><text fill="#000000" stroke="none" font-family="Arial" font-size="13px" font-style="normal" font-weight="normal" text-decoration="none" x="29" y="242.5">+id_product</text></g></g><g transform="translate(-14,-102) scale(1,1)"><g><path fill="none" stroke="none"/><text fill="#000000" stroke="none" font-family="Arial" font-size="13px" font-style="normal" font-weight="normal" text-decoration="none" x="29" y="257.5">+name</text></g></g><g transform="translate(-14,-102) scale(1,1)"><g><path fill="none" stroke="none"/><text fill="#000000" stroke="none" font-family="Arial" font-size="13px" font-style="normal" font-weight="normal" text-decoration="none" x="29" y="272.5">+price</text></g></g><g transform="translate(-14,-102) scale(1,1)"><g><path fill="none" stroke="none"/><text fill="#000000" stroke="none" font-family="Arial" font-size="13px" font-style="normal" font-weight="normal" text-decoration="none" x="29" y="287.5">+number_product</text></g></g><g transform="translate(-14,-102) scale(1,1)"><g><path fill="none" stroke="none"/><text fill="#000000" stroke="none" font-family="Arial" font-size="13px" font-style="normal" font-weight="normal" text-decoration="none" x="29" y="302.5">+id_categorie</text></g></g><g transform="translate(-14,-102) scale(1,1)"><g><path fill="none" stroke="none"/><text fill="#000000" stroke="none" font-family="Arial" font-size="13px" font-style="normal" font-weight="normal" text-decoration="none" x="29" y="325.5">+add_product()</text></g></g><g transform="translate(-14,-102) scale(1,1)"><g><path fill="none" stroke="none"/><text fill="#000000" stroke="none" font-family="Arial" font-size="13px" font-style="normal" font-weight="normal" text-decoration="none" x="29" y="340.5">+list_product()</text></g></g><g transform="translate(-14,-102) scale(1,1)"><g><path fill="none" stroke="none"/><text fill="#000000" stroke="none" font-family="Arial" font-size="13px" font-style="normal" font-weight="normal" text-decoration="none" x="29" y="355.5">+update_product()</text></g></g><g transform="translate(-14,-102) scale(1,1)"><g><path fill="none" stroke="none"/><text fill="#000000" stroke="none" font-family="Arial" font-size="13px" font-style="normal" font-weight="normal" text-decoration="none" x="29" y="370.5">+delete_product()</text></g></g><g transform="translate(-14,-102) scale(1,1)"><g><path fill="none" stroke="none"/><text fill="#000000" stroke="none" font-family="Arial" font-size="13px" font-style="normal" font-weight="normal" text-decoration="none" x="29" y="385.5">+get_product()</text></g></g><g transform="translate(-14,-102) scale(1,1)"><g><path fill="none" stroke="none"/><text fill="#000000" stroke="none" font-family="Arial" font-size="13px" font-style="normal" font-weight="normal" text-decoration="none" x="29" y="400.5">+check_validity()</text></g></g><g transform="translate(-14,-102) scale(1,1)"><rect fill="#C0C0C0" stroke="none" x="351" y="271" width="96" height="130" opacity="0.2"/></g><g transform="translate(-14,-102) scale(1,1)"><rect fill="#ffffff" stroke="none" x="344" y="264" width="96" height="130"/></g><g transform="translate(-14,-102) scale(1,1)"><path fill="none" stroke="#000000" d="M 344 264 L 440 264 L 440 394 L 344 394 L 344 264 Z Z" stroke-miterlimit="10"/></g><g transform="translate(-14,-102) scale(1,1)"><path fill="none" stroke="#000000" d="M 344 289 L 440 289" stroke-miterlimit="10"/></g><g transform="translate(-14,-102) scale(1,1)"><path fill="none" stroke="#000000" d="M 344 342 L 440 342" stroke-miterlimit="10"/></g><g transform="translate(-14,-102) scale(1,1)"><g><path fill="none" stroke="none"/><text fill="#000000" stroke="none" font-family="Arial" font-size="13px" font-style="normal" font-weight="bold" text-decoration="none" x="379.35546875" y="283.5">user</text></g></g><g transform="translate(-14,-102) scale(1,1)"><g><path fill="none" stroke="none"/><text fill="#000000" stroke="none" font-family="Arial" font-size="13px" font-style="normal" font-weight="normal" text-decoration="none" x="349" y="306.5">+id_user</text></g></g><g transform="translate(-14,-102) scale(1,1)"><g><path fill="none" stroke="none"/><text fill="#000000" stroke="none" font-family="Arial" font-size="13px" font-style="normal" font-weight="normal" text-decoration="none" x="349" y="321.5">+id_cart</text></g></g><g transform="translate(-14,-102) scale(1,1)"><g><path fill="none" stroke="none"/><text fill="#000000" stroke="none" font-family="Arial" font-size="13px" font-style="normal" font-weight="normal" text-decoration="none" x="349" y="336.5">+name</text></g></g><g transform="translate(-14,-102) scale(1,1)"><g><path fill="none" stroke="none"/><text fill="#000000" stroke="none" font-family="Arial" font-size="13px" font-style="normal" font-weight="normal" text-decoration="none" x="349" y="359.5">+login()</text></g></g><g transform="translate(-14,-102) scale(1,1)"><g><path fill="none" stroke="none"/><text fill="#000000" stroke="none" font-family="Arial" font-size="13px" font-style="normal" font-weight="normal" text-decoration="none" x="349" y="374.5">+registration()</text></g></g><g transform="translate(-14,-102) scale(1,1)"><rect fill="#C0C0C0" stroke="none" x="543" y="175" width="89.57080078125" height="85" opacity="0.2"/></g><g transform="translate(-14,-102) scale(1,1)"><rect fill="#ffffff" stroke="none" x="536" y="168" width="89.57080078125" height="85"/></g><g transform="translate(-14,-102) scale(1,1)"><path fill="none" stroke="#000000" d="M 536 168 L 625.57080078125 168 L 625.57080078125 253 L 536 253 L 536 168 Z Z" stroke-miterlimit="10"/></g><g transform="translate(-14,-102) scale(1,1)"><path fill="none" stroke="#000000" d="M 536 193 L 625.57080078125 193" stroke-miterlimit="10"/></g><g transform="translate(-14,-102) scale(1,1)"><path fill="none" stroke="#000000" d="M 536 231 L 625.57080078125 231" stroke-miterlimit="10"/></g><g transform="translate(-14,-102) scale(1,1)"><g><path fill="none" stroke="none"/><text fill="#000000" stroke="none" font-family="Arial" font-size="13px" font-style="normal" font-weight="bold" text-decoration="none" x="563.081787109375" y="187.5">admin</text></g></g><g transform="translate(-14,-102) scale(1,1)"><g><path fill="none" stroke="none"/><text fill="#000000" stroke="none" font-family="Arial" font-size="13px" font-style="normal" font-weight="normal" text-decoration="none" x="541" y="210.5">+login</text></g></g><g transform="translate(-14,-102) scale(1,1)"><g><path fill="none" stroke="none"/><text fill="#000000" stroke="none" font-family="Arial" font-size="13px" font-style="normal" font-weight="normal" text-decoration="none" x="541" y="225.5">+password</text></g></g><g transform="translate(-14,-102) scale(1,1)"><rect fill="#C0C0C0" stroke="none" x="543" y="303" width="89.57080078125" height="70" opacity="0.2"/></g><g transform="translate(-14,-102) scale(1,1)"><rect fill="#ffffff" stroke="none" x="536" y="296" width="89.57080078125" height="70"/></g><g transform="translate(-14,-102) scale(1,1)"><path fill="none" stroke="#000000" d="M 536 296 L 625.57080078125 296 L 625.57080078125 366 L 536 366 L 536 296 Z Z" stroke-miterlimit="10"/></g><g transform="translate(-14,-102) scale(1,1)"><path fill="none" stroke="#000000" d="M 536 321 L 625.57080078125 321" stroke-miterlimit="10"/></g><g transform="translate(-14,-102) scale(1,1)"><path fill="none" stroke="#000000" d="M 536 344 L 625.57080078125 344" stroke-miterlimit="10"/></g><g transform="translate(-14,-102) scale(1,1)"><g><path fill="none" stroke="none"/><text fill="#000000" stroke="none" font-family="Arial" font-size="13px" font-style="normal" font-weight="bold" text-decoration="none" x="565.611328125" y="315.5">client</text></g></g><g transform="translate(-14,-102) scale(1,1)"><g><path fill="none" stroke="none"/><text fill="#000000" stroke="none" font-family="Arial" font-size="13px" font-style="normal" font-weight="normal" text-decoration="none" x="541" y="338.5">+cin</text></g></g><g transform="translate(-14,-102) scale(1,1)"><g><path fill="none" stroke="none"/><text fill="#000000" stroke="none" font-family="Arial" font-size="13px" font-style="normal" font-weight="normal" text-decoration="none" x="541" y="361.5">+contacter()</text></g></g><g transform="translate(-14,-102) scale(1,1)"><rect fill="#C0C0C0" stroke="none" x="191" y="119" width="167.615234375" height="115" opacity="0.2"/></g><g transform="translate(-14,-102) scale(1,1)"><rect fill="#ffffff" stroke="none" x="184" y="112" width="167.615234375" height="115"/></g><g transform="translate(-14,-102) scale(1,1)"><path fill="none" stroke="#000000" d="M 184 112 L 351.615234375 112 L 351.615234375 227 L 184 227 L 184 112 Z Z" stroke-miterlimit="10"/></g><g transform="translate(-14,-102) scale(1,1)"><path fill="none" stroke="#000000" d="M 184 137 L 351.615234375 137" stroke-miterlimit="10"/></g><g transform="translate(-14,-102) scale(1,1)"><path fill="none" stroke="#000000" d="M 184 190 L 351.615234375 190" stroke-miterlimit="10"/></g><g transform="translate(-14,-102) scale(1,1)"><g><path fill="none" stroke="none"/><text fill="#000000" stroke="none" font-family="Arial" font-size="13px" font-style="normal" font-weight="bold" text-decoration="none" x="235.653564453125" y="131.5">commande</text></g></g><g transform="translate(-14,-102) scale(1,1)"><g><path fill="none" stroke="none"/><text fill="#000000" stroke="none" font-family="Arial" font-size="13px" font-style="normal" font-weight="normal" text-decoration="none" x="189" y="154.5">+id_commande</text></g></g><g transform="translate(-14,-102) scale(1,1)"><g><path fill="none" stroke="none"/><text fill="#000000" stroke="none" font-family="Arial" font-size="13px" font-style="normal" font-weight="normal" text-decoration="none" x="189" y="169.5">+id_product</text></g></g><g transform="translate(-14,-102) scale(1,1)"><g><path fill="none" stroke="none"/><text fill="#000000" stroke="none" font-family="Arial" font-size="13px" font-style="normal" font-weight="normal" text-decoration="none" x="189" y="184.5">+id_user</text></g></g><g transform="translate(-14,-102) scale(1,1)"><g><path fill="none" stroke="none"/><text fill="#000000" stroke="none" font-family="Arial" font-size="13px" font-style="normal" font-weight="normal" text-decoration="none" x="189" y="207.5">+create_ligne_commande()</text></g></g><g transform="translate(-14,-102) scale(1,1)"><g><path fill="none" stroke="none"/><text fill="#000000" stroke="none" font-family="Arial" font-size="13px" font-style="normal" font-weight="normal" text-decoration="none" x="189" y="222.5">+reporting_commande()</text></g></g><g transform="translate(-14,-102) scale(1,1)"><path fill="none" stroke="#000000" d="M 535 238 L 441 298" stroke-miterlimit="10"/></g><g transform="translate(-14,-102) scale(1,1)"><path fill="#FFFFFF" stroke="none" d="M 453.60294910753294 279.9676492438469 L 441 298 L 462.6624282772957 294.1608332764753"/></g><g transform="translate(-14,-102) scale(1,1)"><path fill="none" stroke="#000000" d="M 453.60294910753294 279.9676492438469 L 441 298 L 462.6624282772957 294.1608332764753 L 453.60294910753294 279.9676492438469" stroke-miterlimit="10"/></g><g transform="translate(-14,-102) scale(1,1)"><path fill="none" stroke="#000000" d="M 535 331 L 441 330" stroke-miterlimit="10"/></g><g transform="translate(-14,-102) scale(1,1)"><path fill="#FFFFFF" stroke="none" d="M 461.4137588084463 321.7976557429853 L 441 330 L 461.2346405287206 338.63477403719736"/></g><g transform="translate(-14,-102) scale(1,1)"><path fill="none" stroke="#000000" d="M 461.4137588084463 321.7976557429853 L 441 330 L 461.2346405287206 338.63477403719736 L 461.4137588084463 321.7976557429853" stroke-miterlimit="10"/></g><g transform="translate(-14,-102) scale(1,1)"><path fill="none" stroke="#000000" d="M 188 228 L 153 254" stroke-miterlimit="10"/></g><g transform="translate(-14,-102) scale(1,1)"><g><path fill="none" stroke="none"/><text fill="#000000" stroke="none" font-family="Arial" font-size="13px" font-style="normal" font-weight="normal" text-decoration="none" x="163.5" y="258.5">+1..N</text></g></g><g transform="translate(-14,-102) scale(1,1)"><path fill="none" stroke="#000000" d="M 343 266 L 313 228" stroke-miterlimit="10"/></g><g transform="translate(-14,-102) scale(1,1)"><g><path fill="none" stroke="none"/><text fill="#000000" stroke="none" font-family="Arial" font-size="13px" font-style="normal" font-weight="normal" text-decoration="none" x="301.5" y="263.5">+1..N</text></g></g><g transform="translate(-14,-102) scale(1,1)"><rect fill="#C0C0C0" stroke="none" x="39" y="479" width="160" height="145" opacity="0.2"/></g><g transform="translate(-14,-102) scale(1,1)"><rect fill="#ffffff" stroke="none" x="32" y="472" width="160" height="145"/></g><g transform="translate(-14,-102) scale(1,1)"><path fill="none" stroke="#000000" d="M 32 472 L 192 472 L 192 617 L 32 617 L 32 472 Z Z" stroke-miterlimit="10"/></g><g transform="translate(-14,-102) scale(1,1)"><path fill="none" stroke="#000000" d="M 32 497 L 192 497" stroke-miterlimit="10"/></g><g transform="translate(-14,-102) scale(1,1)"><path fill="none" stroke="#000000" d="M 32 535 L 192 535" stroke-miterlimit="10"/></g><g transform="translate(-14,-102) scale(1,1)"><g><path fill="none" stroke="none"/><text fill="#000000" stroke="none" font-family="Arial" font-size="13px" font-style="normal" font-weight="bold" text-decoration="none" x="85.260498046875" y="491.5">categorie</text></g></g><g transform="translate(-14,-102) scale(1,1)"><g><path fill="none" stroke="none"/><text fill="#000000" stroke="none" font-family="Arial" font-size="13px" font-style="normal" font-weight="normal" text-decoration="none" x="37" y="514.5">+id_categorie</text></g></g><g transform="translate(-14,-102) scale(1,1)"><g><path fill="none" stroke="none"/><text fill="#000000" stroke="none" font-family="Arial" font-size="13px" font-style="normal" font-weight="normal" text-decoration="none" x="37" y="529.5">+name</text></g></g><g transform="translate(-14,-102) scale(1,1)"><g><path fill="none" stroke="none"/><text fill="#000000" stroke="none" font-family="Arial" font-size="13px" font-style="normal" font-weight="normal" text-decoration="none" x="37" y="552.5">+add_categorie()</text></g></g><g transform="translate(-14,-102) scale(1,1)"><g><path fill="none" stroke="none"/><text fill="#000000" stroke="none" font-family="Arial" font-size="13px" font-style="normal" font-weight="normal" text-decoration="none" x="37" y="567.5">+list_categorie()</text></g></g><g transform="translate(-14,-102) scale(1,1)"><g><path fill="none" stroke="none"/><text fill="#000000" stroke="none" font-family="Arial" font-size="13px" font-style="normal" font-weight="normal" text-decoration="none" x="37" y="582.5">+udpate_categorie()</text></g></g><g transform="translate(-14,-102) scale(1,1)"><g><path fill="none" stroke="none"/><text fill="#000000" stroke="none" font-family="Arial" font-size="13px" font-style="normal" font-weight="normal" text-decoration="none" x="37" y="597.5">+delete_categorie()</text></g></g><g transform="translate(-14,-102) scale(1,1)"><g><path fill="none" stroke="none"/><text fill="#000000" stroke="none" font-family="Arial" font-size="13px" font-style="normal" font-weight="normal" text-decoration="none" x="37" y="612.5">+get_categorie()</text></g></g><g transform="translate(-14,-102) scale(1,1)"><path fill="none" stroke="#000000" d="M 98 406 L 105 471" stroke-miterlimit="10"/></g><g transform="translate(-14,-102) scale(1,1)"><g><path fill="none" stroke="none"/><text fill="#000000" stroke="none" font-family="Arial" font-size="13px" font-style="normal" font-weight="normal" text-decoration="none" x="104.5" y="420.5">+1.1</text></g></g><g transform="translate(-14,-102) scale(1,1)"><path fill="none" stroke="#000000" d="M 105 471 L 98 406" stroke-miterlimit="10"/></g><g transform="translate(-14,-102) scale(1,1)"><g><path fill="none" stroke="none"/><text fill="#000000" stroke="none" font-family="Arial" font-size="13px" font-style="normal" font-weight="normal" text-decoration="none" x="70.5" y="468.5">+1..N</text></g></g></g></svg>